<svg width="23" height="23" viewBox="0 0 23 23" fill="none" xmlns="http://www.w3.org/2000/svg">
<mask id="path-1-inside-1_0_63" fill="white">
<path fill-rule="evenodd" clip-rule="evenodd" d="M5.5786 11.4707C5.5786 14.7276 8.2174 17.3673 11.4748 17.3673C14.7296 17.3673 17.3709 14.7276 17.3709 11.4707C17.3709 8.21502 14.7296 5.57529 11.4748 5.57529C8.2174 5.57529 5.5786 8.21502 5.5786 11.4707ZM7.64347 11.4719C7.64347 9.35634 9.35888 7.64244 11.4748 7.64244C13.5907 7.64244 15.3035 9.35634 15.3035 11.4719C15.3035 13.5863 13.5907 15.3015 11.4748 15.3015C9.35888 15.3015 7.64347 13.5863 7.64347 11.4719ZM18.9805 5.35851C18.9805 4.59928 18.3649 3.98381 17.6056 3.98381C16.8463 3.98381 16.2307 4.59928 16.2307 5.35851C16.2307 6.11773 16.8463 6.7332 17.6056 6.7332C18.3649 6.7332 18.9805 6.11773 18.9805 5.35851ZM19.0009 0.604458C18.1094 0.269073 17.1669 0.0892658 16.2129 0.0688622C14.9847 0.0153026 14.5957 0 11.4811 0C8.36662 0 7.96742 -1.28266e-07 6.74941 0.0688622C5.79797 0.0879906 4.85545 0.267798 3.96394 0.604458C2.42071 1.19999 1.2027 2.41911 0.605815 3.96086C0.270385 4.85352 0.0905534 5.79463 0.0714224 6.7485C0.0165802 7.97527 0 8.36422 0 11.4796C0 14.5937 -9.50235e-09 14.9903 0.0714224 16.2107C0.0905534 17.1646 0.270385 18.1057 0.605815 18.9996C1.20398 20.5401 2.42198 21.7592 3.96522 22.356C4.8529 22.7029 5.79542 22.8993 6.75197 22.9299C7.98018 22.9834 8.36917 23 11.4837 23C14.5982 23 14.9974 23 16.2154 22.9299C17.1682 22.9107 18.1107 22.7297 19.0035 22.3955C20.5454 21.7975 21.7634 20.5796 22.3616 19.0379C22.697 18.1452 22.8768 17.2041 22.896 16.2502C22.9508 15.0235 22.9674 14.6345 22.9674 11.5191C22.9674 8.40375 22.9674 8.00843 22.896 6.78804C22.8794 5.82141 22.7008 4.86372 22.359 3.96086C21.7609 2.41911 20.5429 1.19999 19.0009 0.604458ZM20.4089 18.2689C20.0199 19.2725 19.2279 20.0657 18.2255 20.4508C17.5431 20.7046 16.8238 20.8372 16.0955 20.8474C14.8839 20.9035 14.5421 20.9176 11.4352 20.9176C8.32581 20.9176 8.00823 20.9176 6.77365 20.8474C6.04795 20.8385 5.32607 20.7046 4.64501 20.4508C3.63872 20.067 2.84159 19.2738 2.45259 18.2689C2.20262 17.5879 2.06742 16.8674 2.05594 16.1406C2.0011 14.9291 1.98835 14.5873 1.98835 11.4809C1.98835 8.37314 1.98835 8.05561 2.05594 6.81992C2.06487 6.08538 2.19751 5.35851 2.45259 4.66861C2.84159 3.66245 3.63872 2.87054 4.64501 2.48542C5.32607 2.23292 6.04795 2.09902 6.77365 2.08882C7.98655 2.03399 8.32709 2.01868 11.4352 2.01868C14.5434 2.01868 14.8622 2.01869 16.0955 2.08882C16.8238 2.09775 17.5431 2.23165 18.2255 2.48542C19.2279 2.87181 20.0199 3.665 20.4089 4.66861C20.6589 5.34958 20.7941 6.07008 20.8056 6.79696C20.8604 8.0097 20.8745 8.35019 20.8745 11.4579C20.8745 14.5644 20.8745 14.8985 20.8196 16.1176H20.8056V16.1163C20.7967 16.8509 20.664 17.579 20.4089 18.2689Z"/>
</mask>
<path fill-rule="evenodd" clip-rule="evenodd" d="M5.5786 11.4707C5.5786 14.7276 8.2174 17.3673 11.4748 17.3673C14.7296 17.3673 17.3709 14.7276 17.3709 11.4707C17.3709 8.21502 14.7296 5.57529 11.4748 5.57529C8.2174 5.57529 5.5786 8.21502 5.5786 11.4707ZM7.64347 11.4719C7.64347 9.35634 9.35888 7.64244 11.4748 7.64244C13.5907 7.64244 15.3035 9.35634 15.3035 11.4719C15.3035 13.5863 13.5907 15.3015 11.4748 15.3015C9.35888 15.3015 7.64347 13.5863 7.64347 11.4719ZM18.9805 5.35851C18.9805 4.59928 18.3649 3.98381 17.6056 3.98381C16.8463 3.98381 16.2307 4.59928 16.2307 5.35851C16.2307 6.11773 16.8463 6.7332 17.6056 6.7332C18.3649 6.7332 18.9805 6.11773 18.9805 5.35851ZM19.0009 0.604458C18.1094 0.269073 17.1669 0.0892658 16.2129 0.0688622C14.9847 0.0153026 14.5957 0 11.4811 0C8.36662 0 7.96742 -1.28266e-07 6.74941 0.0688622C5.79797 0.0879906 4.85545 0.267798 3.96394 0.604458C2.42071 1.19999 1.2027 2.41911 0.605815 3.96086C0.270385 4.85352 0.0905534 5.79463 0.0714224 6.7485C0.0165802 7.97527 0 8.36422 0 11.4796C0 14.5937 -9.50235e-09 14.9903 0.0714224 16.2107C0.0905534 17.1646 0.270385 18.1057 0.605815 18.9996C1.20398 20.5401 2.42198 21.7592 3.96522 22.356C4.8529 22.7029 5.79542 22.8993 6.75197 22.9299C7.98018 22.9834 8.36917 23 11.4837 23C14.5982 23 14.9974 23 16.2154 22.9299C17.1682 22.9107 18.1107 22.7297 19.0035 22.3955C20.5454 21.7975 21.7634 20.5796 22.3616 19.0379C22.697 18.1452 22.8768 17.2041 22.896 16.2502C22.9508 15.0235 22.9674 14.6345 22.9674 11.5191C22.9674 8.40375 22.9674 8.00843 22.896 6.78804C22.8794 5.82141 22.7008 4.86372 22.359 3.96086C21.7609 2.41911 20.5429 1.19999 19.0009 0.604458ZM20.4089 18.2689C20.0199 19.2725 19.2279 20.0657 18.2255 20.4508C17.5431 20.7046 16.8238 20.8372 16.0955 20.8474C14.8839 20.9035 14.5421 20.9176 11.4352 20.9176C8.32581 20.9176 8.00823 20.9176 6.77365 20.8474C6.04795 20.8385 5.32607 20.7046 4.64501 20.4508C3.63872 20.067 2.84159 19.2738 2.45259 18.2689C2.20262 17.5879 2.06742 16.8674 2.05594 16.1406C2.0011 14.9291 1.98835 14.5873 1.98835 11.4809C1.98835 8.37314 1.98835 8.05561 2.05594 6.81992C2.06487 6.08538 2.19751 5.35851 2.45259 4.66861C2.84159 3.66245 3.63872 2.87054 4.64501 2.48542C5.32607 2.23292 6.04795 2.09902 6.77365 2.08882C7.98655 2.03399 8.32709 2.01868 11.4352 2.01868C14.5434 2.01868 14.8622 2.01869 16.0955 2.08882C16.8238 2.09775 17.5431 2.23165 18.2255 2.48542C19.2279 2.87181 20.0199 3.665 20.4089 4.66861C20.6589 5.34958 20.7941 6.07008 20.8056 6.79696C20.8604 8.0097 20.8745 8.35019 20.8745 11.4579C20.8745 14.5644 20.8745 14.8985 20.8196 16.1176H20.8056V16.1163C20.7967 16.8509 20.664 17.579 20.4089 18.2689Z" fill="white"/>
<path d="M15.3035 11.4719H15.7035H15.3035ZM19.0009 0.604458L19.145 0.231306L19.1417 0.230074L19.0009 0.604458ZM16.2129 0.0688622L16.1954 0.468581L16.2043 0.468771L16.2129 0.0688622ZM6.74941 0.0688622L6.75745 0.468781L6.76473 0.468635L6.77199 0.468224L6.74941 0.0688622ZM3.96394 0.604458L3.82263 0.230241L3.81993 0.23128L3.96394 0.604458ZM0.605815 3.96086L0.232776 3.81643L0.231377 3.82016L0.605815 3.96086ZM0.0714224 6.7485L0.471144 6.76637L0.471342 6.75652L0.0714224 6.7485ZM0.0714224 16.2107L0.471342 16.2027L0.471188 16.195L0.470739 16.1873L0.0714224 16.2107ZM0.605815 18.9996L0.231287 19.1401L0.232938 19.1444L0.605815 18.9996ZM3.96522 22.356L4.1108 21.9834L4.10949 21.9829L3.96522 22.356ZM6.75197 22.9299L6.76939 22.5302L6.76476 22.5301L6.75197 22.9299ZM16.2154 22.9299L16.2074 22.5299L16.1999 22.5301L16.1924 22.5305L16.2154 22.9299ZM19.0035 22.3955L19.1437 22.7702L19.1481 22.7685L19.0035 22.3955ZM22.3616 19.0379L22.7345 19.1826L22.736 19.1786L22.3616 19.0379ZM22.896 16.2502L22.4963 16.2324L22.4961 16.2422L22.896 16.2502ZM22.896 6.78804L22.496 6.7949L22.4962 6.80316L22.4967 6.81141L22.896 6.78804ZM22.359 3.96086L22.7331 3.81923L22.7319 3.81617L22.359 3.96086ZM20.4089 18.2689L20.782 18.4135L20.7841 18.4076L20.4089 18.2689ZM18.2255 20.4508L18.3649 20.8258L18.3689 20.8242L18.2255 20.4508ZM16.0955 20.8474L16.0899 20.4472L16.077 20.4478L16.0955 20.8474ZM6.77365 20.8474L6.79634 20.4481L6.78746 20.4476L6.77857 20.4474L6.77365 20.8474ZM4.64501 20.4508L4.50244 20.8246L4.50534 20.8256L4.64501 20.4508ZM2.45259 18.2689L2.07704 18.4068L2.07957 18.4133L2.45259 18.2689ZM2.05594 16.1406L2.45607 16.1342L2.45553 16.1225L2.05594 16.1406ZM2.05594 6.81992L2.45535 6.84176L2.45581 6.83328L2.45591 6.82478L2.05594 6.81992ZM2.45259 4.66861L2.07947 4.52435L2.07742 4.52989L2.45259 4.66861ZM4.64501 2.48542L4.50595 2.11034L4.50203 2.11184L4.64501 2.48542ZM6.77365 2.08882L6.77927 2.48898L6.79171 2.48841L6.77365 2.08882ZM16.0955 2.08882L16.0728 2.48818L16.0817 2.48868L16.0906 2.48879L16.0955 2.08882ZM18.2255 2.48542L18.3693 2.11216L18.3649 2.11051L18.2255 2.48542ZM20.4089 4.66861L20.7845 4.53074L20.7819 4.52405L20.4089 4.66861ZM20.8056 6.79696L20.4055 6.80328L20.406 6.81503L20.8056 6.79696ZM20.8196 16.1176V16.5176H21.202L21.2192 16.1356L20.8196 16.1176ZM20.8056 16.1176H20.4056V16.5176H20.8056V16.1176ZM20.8056 16.1163H21.2056L20.4056 16.1115L20.8056 16.1163ZM5.1786 11.4707C5.1786 14.9485 7.99642 17.7673 11.4748 17.7673V16.9673C8.43838 16.9673 5.9786 14.5067 5.9786 11.4707H5.1786ZM11.4748 17.7673C14.9505 17.7673 17.7709 14.9486 17.7709 11.4707H16.9709C16.9709 14.5066 14.5087 16.9673 11.4748 16.9673V17.7673ZM17.7709 11.4707C17.7709 7.99399 14.9504 5.17529 11.4748 5.17529V5.97529C14.5088 5.97529 16.9709 8.43604 16.9709 11.4707H17.7709ZM11.4748 5.17529C7.99648 5.17529 5.1786 7.99411 5.1786 11.4707H5.9786C5.9786 8.43592 8.43832 5.97529 11.4748 5.97529V5.17529ZM8.04347 11.4719C8.04347 9.57748 9.57957 8.04244 11.4748 8.04244V7.24244C9.13819 7.24244 7.24347 9.13521 7.24347 11.4719H8.04347ZM11.4748 8.04244C13.3696 8.04244 14.9035 9.57714 14.9035 11.4719H15.7035C15.7035 9.13555 13.8117 7.24244 11.4748 7.24244V8.04244ZM14.9035 11.4719C14.9035 13.3656 13.3695 14.9015 11.4748 14.9015V15.7015C13.8118 15.7015 15.7035 13.807 15.7035 11.4719H14.9035ZM11.4748 14.9015C9.57966 14.9015 8.04347 13.3652 8.04347 11.4719H7.24347C7.24347 13.8073 9.13811 15.7015 11.4748 15.7015V14.9015ZM19.3805 5.35851C19.3805 4.37832 18.5858 3.58381 17.6056 3.58381V4.38381C18.1441 4.38381 18.5805 4.82025 18.5805 5.35851H19.3805ZM17.6056 3.58381C16.6254 3.58381 15.8307 4.37832 15.8307 5.35851H16.6307C16.6307 4.82025 17.0672 4.38381 17.6056 4.38381V3.58381ZM15.8307 5.35851C15.8307 6.33869 16.6254 7.1332 17.6056 7.1332V6.3332C17.0672 6.3332 16.6307 5.89676 16.6307 5.35851H15.8307ZM17.6056 7.1332C18.5858 7.1332 19.3805 6.33869 19.3805 5.35851H18.5805C18.5805 5.89676 18.1441 6.3332 17.6056 6.3332V7.1332ZM19.1417 0.230074C18.2073 -0.121453 17.22 -0.309689 16.2214 -0.331046L16.2043 0.468771C17.1137 0.48822 18.0115 0.659599 18.8601 0.978841L19.1417 0.230074ZM16.2303 -0.330758C14.9938 -0.38468 14.5983 -0.4 11.4811 -0.4V0.4C14.5931 0.4 14.9756 0.415285 16.1955 0.468482L16.2303 -0.330758ZM11.4811 -0.4C8.36907 -0.4 7.95818 -0.400117 6.72684 -0.3305L6.77199 0.468224C7.97666 0.400116 8.36417 0.4 11.4811 0.4V-0.4ZM6.74137 -0.331057C5.7449 -0.311023 4.75727 -0.122699 3.82263 0.230251L4.10525 0.978665C4.95362 0.658294 5.85103 0.487005 6.75745 0.468781L6.74137 -0.331057ZM3.81993 0.23128C2.17128 0.867492 0.870276 2.16984 0.232794 3.81644L0.978835 4.10527C1.53513 2.66838 2.67014 1.53249 4.10795 0.977635L3.81993 0.23128ZM0.231377 3.82016C-0.120103 4.75553 -0.308462 5.74153 -0.328497 6.74048L0.471342 6.75652C0.489569 5.84774 0.660872 4.9515 0.980252 4.10156L0.231377 3.82016ZM-0.328179 6.73064C-0.383395 7.96579 -0.4 8.36132 -0.4 11.4796H0.4C0.4 8.36711 0.416556 7.98476 0.471023 6.76637L-0.328179 6.73064ZM-0.4 11.4796C-0.4 14.5912 -0.400124 14.9999 -0.327894 16.2341L0.470739 16.1873C0.400124 14.9807 0.4 14.5962 0.4 11.4796H-0.4ZM-0.328497 16.2187C-0.308461 17.2177 -0.120094 18.2036 0.231311 19.1401L0.980318 18.8591C0.660863 18.0077 0.489568 17.1114 0.471342 16.2027L-0.328497 16.2187ZM0.232938 19.1444C0.871714 20.7895 2.17254 22.0916 3.82094 22.7291L4.10949 21.9829C2.67143 21.4268 1.53624 20.2907 0.978691 18.8548L0.232938 19.1444ZM3.81964 22.7286C4.74898 23.0917 5.73636 23.2976 6.73917 23.3297L6.76476 22.5301C5.85447 22.5009 4.95681 22.314 4.1108 21.9834L3.81964 22.7286ZM6.73454 23.3295C7.97085 23.3834 8.36624 23.4 11.4837 23.4V22.6C8.3721 22.6 7.9895 22.5834 6.76939 22.5302L6.73454 23.3295ZM11.4837 23.4C14.5957 23.4 15.0068 23.4001 16.2384 23.3292L16.1924 22.5305C14.988 22.5999 14.6007 22.6 11.4837 22.6V23.4ZM16.2235 23.3298C17.2216 23.3097 18.2088 23.12 19.1437 22.7702L18.8633 22.0209C18.0126 22.3393 17.1148 22.5117 16.2074 22.5299L16.2235 23.3298ZM19.1481 22.7685C20.7948 22.1298 22.0957 20.8291 22.7345 19.1826L21.9887 18.8932C21.4312 20.3302 20.296 21.4652 18.8588 22.0226L19.1481 22.7685ZM22.736 19.1786C23.0875 18.2432 23.2759 17.2572 23.2959 16.2582L22.4961 16.2422C22.4778 17.151 22.3065 18.0472 21.9871 18.8972L22.736 19.1786ZM23.2956 16.2681C23.3508 15.0329 23.3674 14.6374 23.3674 11.5191H22.5674C22.5674 14.6316 22.5508 15.014 22.4964 16.2324L23.2956 16.2681ZM23.3674 11.5191C23.3674 8.40625 23.3675 7.99886 23.2953 6.76467L22.4967 6.81141C22.5673 8.018 22.5674 8.40125 22.5674 11.5191H23.3674ZM23.2959 6.78118C23.2786 5.76995 23.0918 4.76654 22.7331 3.81923L21.9849 4.10248C22.3099 4.96089 22.4802 5.87288 22.496 6.7949L23.2959 6.78118ZM22.7319 3.81617C22.0932 2.16985 20.7924 0.867558 19.145 0.23132L18.8568 0.977595C20.2934 1.53242 21.4285 2.66837 21.9861 4.10554L22.7319 3.81617ZM20.036 18.1243C19.6875 19.0235 18.9783 19.7331 18.082 20.0774L18.3689 20.8242C19.4775 20.3983 20.3524 19.5215 20.7819 18.4135L20.036 18.1243ZM18.086 20.0759C17.4472 20.3135 16.7732 20.4379 16.0899 20.4475L16.1011 21.2474C16.8744 21.2365 17.639 21.0957 18.3649 20.8257L18.086 20.0759ZM16.077 20.4478C14.8745 20.5035 14.5398 20.5176 11.4352 20.5176V21.3176C14.5445 21.3176 14.8933 21.3035 16.114 21.247L16.077 20.4478ZM11.4352 20.5176C8.32383 20.5176 8.01767 20.5174 6.79634 20.4481L6.75096 21.2468C7.9988 21.3177 8.32779 21.3176 11.4352 21.3176V20.5176ZM6.77857 20.4474C6.09863 20.4391 5.42235 20.3136 4.78467 20.076L4.50534 20.8256C5.22978 21.0956 5.99726 21.2379 6.76873 21.2474L6.77857 20.4474ZM4.78756 20.0771C3.88713 19.7336 3.17374 19.0238 2.82562 18.1245L2.07957 18.4133C2.50944 19.5238 3.3903 20.4003 4.50245 20.8246L4.78756 20.0771ZM2.82809 18.1311C2.59345 17.4919 2.46666 16.8158 2.45589 16.1342L1.65599 16.1469C1.66819 16.9191 1.81178 17.684 2.07709 18.4067L2.82809 18.1311ZM2.45553 16.1225C2.4011 14.92 2.38835 14.5853 2.38835 11.4809H1.58835C1.58835 14.5894 1.6011 14.9382 1.65635 16.1586L2.45553 16.1225ZM2.38835 11.4809C2.38835 8.37125 2.38845 8.0647 2.45535 6.84176L1.65654 6.79807C1.58825 8.04652 1.58835 8.37504 1.58835 11.4809H2.38835ZM2.45591 6.82478C2.4643 6.13526 2.58878 5.4537 2.82777 4.80732L2.07742 4.52989C1.80624 5.26331 1.66545 6.03551 1.65597 6.81505L2.45591 6.82478ZM2.82568 4.81285C3.17372 3.91264 3.88699 3.20381 4.78798 2.85899L4.50203 2.11184C3.39044 2.53726 2.50946 3.41227 2.07951 4.52437L2.82568 4.81285ZM4.78405 2.86047C5.42211 2.62392 6.09884 2.49835 6.77927 2.48878L6.76802 1.68886C5.99705 1.6997 5.23003 1.84192 4.50596 2.11036L4.78405 2.86047ZM6.79171 2.48841C7.99602 2.43397 8.32981 2.41868 11.4352 2.41868V1.61868C8.32436 1.61868 7.97708 1.63401 6.75558 1.68923L6.79171 2.48841ZM11.4352 2.41868C14.5454 2.41868 14.8528 2.41879 16.0728 2.48818L16.1183 1.68947C14.8717 1.61858 14.5414 1.61868 11.4352 1.61868V2.41868ZM16.0906 2.48879C16.773 2.49716 17.4468 2.62259 18.086 2.86033L18.3649 2.11051C17.6394 1.8407 16.8746 1.69834 16.1004 1.68885L16.0906 2.48879ZM18.0816 2.85865C18.9783 3.20428 19.6875 3.91407 20.036 4.81317L20.7819 4.52405C20.3524 3.41593 19.4776 2.53934 18.3693 2.11218L18.0816 2.85865ZM20.0334 4.80645C20.2681 5.44565 20.3949 6.12171 20.4056 6.80328L21.2055 6.79065C21.1933 6.01845 21.0498 5.25351 20.7844 4.53077L20.0334 4.80645ZM20.406 6.81503C20.4604 8.01897 20.4745 8.35257 20.4745 11.4579H21.2745C21.2745 8.3478 21.2604 8.00043 21.2052 6.77889L20.406 6.81503ZM20.4745 11.4579C20.4745 14.5661 20.4744 14.8911 20.42 16.0996L21.2192 16.1356C21.2745 14.9059 21.2745 14.5627 21.2745 11.4579H20.4745ZM20.8196 15.7176H20.8056V16.5176H20.8196V15.7176ZM21.2056 16.1176V16.1163H20.4056V16.1176H21.2056ZM20.4056 16.1115C20.3972 16.8011 20.2727 17.4839 20.0338 18.1302L20.7841 18.4076C21.0553 17.6741 21.1961 16.9006 21.2056 16.1212L20.4056 16.1115Z" fill="#2D2D2D" mask="url(#path-1-inside-1_0_63)"/>
</svg>
