<svg width="39" height="39" viewBox="0 0 39 39" fill="none" xmlns="http://www.w3.org/2000/svg">
<path d="M35.8243 5.16H33.78V2.05944C33.78 0.88536 32.8659 0 31.6534 0H3.1757C1.96694 0 1.02002 0.90456 1.02002 2.05944V9.5892C1.02002 10.7862 1.9871 11.76 3.1757 11.76H31.6534C32.826 11.76 33.78 10.7862 33.78 9.5892V6.6H35.8243C36.2391 6.6 36.54 6.86232 36.54 7.22364V15.1902C36.54 15.5606 36.2323 15.84 35.8243 15.84H19.2517C18.0653 15.84 17.1 16.804 17.1 17.9888V19.2H16.0323C15.7254 19.2 15.4523 19.3944 15.3519 19.6843L13.5395 24.9164C13.5132 24.9923 13.4999 25.072 13.4999 25.1521V38.28C13.4999 38.6777 13.8223 39 14.2199 39H21.2999C21.6976 39 22.0199 38.6777 22.0199 38.28V25.1521C22.0199 25.0746 22.0073 24.9977 21.9828 24.9242L20.2371 19.6921C20.139 19.3982 19.864 19.2 19.5541 19.2H18.54V17.9888C18.54 17.598 18.8592 17.28 19.2517 17.28H35.8243C37.0331 17.28 37.98 16.3621 37.98 15.1902V7.22364C37.98 6.06648 37.0331 5.16 35.8243 5.16ZM32.34 9.5892C32.34 9.94068 32.0775 10.32 31.6534 10.32H3.1757C2.78774 10.32 2.46002 9.98532 2.46002 9.5892V2.05944C2.46002 1.69476 2.75426 1.44 3.1757 1.44H31.6534C32.064 1.44 32.34 1.68888 32.34 2.05944V9.5892ZM20.58 25.269V37.56H14.94V25.2732L16.5449 20.64H19.0355L20.58 25.269Z" fill="#D3D3D3"/>
</svg>
