<svg width="22" height="23" viewBox="0 0 22 23" fill="none" xmlns="http://www.w3.org/2000/svg">
<path d="M12.0251 14.3198C11.9839 14.2984 11.9262 14.2724 11.8541 14.2399C11.4727 14.0682 10.6867 13.7142 9.7912 12.8832L9.79119 12.8832C8.96019 12.1119 8.40178 11.163 8.23978 10.874L8.23969 10.8738C8.14169 10.6985 8.13211 10.5458 8.18539 10.4078C8.22246 10.3118 8.2923 10.2261 8.34245 10.1645L12.0251 14.3198ZM12.0251 14.3198C12.1718 14.3962 12.3133 14.4423 12.4524 14.4247C12.5977 14.4063 12.7087 14.3231 12.8021 14.212C12.9603 14.0239 13.4916 13.3746 13.6804 13.0799L13.6805 13.0798C13.7566 12.9608 13.8133 12.939 13.854 12.9341C13.9118 12.9272 13.9864 12.9473 14.1166 12.9966C14.2328 13.0407 14.6228 13.2318 15.0291 13.4359C15.4305 13.6375 15.8347 13.845 15.9707 13.9159C16.0299 13.9468 16.082 13.9729 16.1288 13.9964C16.1971 14.0307 16.2539 14.0593 16.3049 14.0884C16.3898 14.1369 16.4216 14.1678 16.4344 14.1902L16.4345 14.1903C16.4344 14.19 16.4345 14.1904 16.4348 14.1915C16.4367 14.1977 16.4459 14.2278 16.451 14.2949C16.4563 14.3659 16.456 14.4609 16.4465 14.5753C16.4275 14.8037 16.373 15.1004 16.2631 15.4211C16.1654 15.7057 15.8697 16.0006 15.5097 16.2407C15.1525 16.4789 14.7683 16.6392 14.5344 16.6756C14.0758 16.7468 13.5055 16.7751 12.8807 16.5685L12.8806 16.5685C12.4853 16.438 11.981 16.2648 11.3347 15.9741L11.3347 15.9741C8.81449 14.842 7.10535 12.2972 6.77007 11.798C6.74603 11.7622 6.72905 11.7369 6.71934 11.7235L6.71692 11.7201C6.64608 11.6217 6.37598 11.2465 6.12232 10.7267C5.86469 10.1988 5.63003 9.5336 5.63003 8.86519C5.63003 7.61126 6.21636 6.96009 6.49662 6.64884C6.51616 6.62714 6.53421 6.60709 6.55047 6.58861C6.76875 6.34049 7.02169 6.2831 7.16778 6.2831C7.34998 6.2831 7.52924 6.2848 7.68458 6.29286L7.68461 6.29287C7.72268 6.29484 7.75265 6.29468 7.77794 6.29454C7.83374 6.29424 7.86677 6.29406 7.91378 6.31718C7.97059 6.34513 8.06373 6.42476 8.16904 6.68765C8.24387 6.87483 8.35307 7.15149 8.46856 7.44406C8.52884 7.59679 8.59084 7.75385 8.65055 7.90479C8.82264 8.3398 8.97956 8.73376 9.01669 8.81124L9.01679 8.81145C9.07648 8.93555 9.1025 9.04969 9.0397 9.18037L9.03968 9.18041C9.00039 9.26223 8.91068 9.40036 8.78758 9.57297C8.66663 9.74257 8.51976 9.93683 8.37215 10.1276L12.0251 14.3198ZM1.6991 17.1323L1.71443 17.0741L1.68522 17.0214C0.739113 15.3156 0.241083 13.3799 0.241883 11.3963C0.244281 5.1897 5.09662 0.15 11.0459 0.15C13.9343 0.151245 16.646 1.32085 18.6864 3.44635L18.7946 3.34247L18.6864 3.44635C20.7272 5.57194 21.8512 8.39779 21.85 11.4053C21.8477 17.6122 16.9949 22.6523 11.0461 22.6523H11.0416C11.0416 22.6523 11.0416 22.6523 11.0416 22.6523C9.23451 22.6518 7.45864 22.1801 5.88099 21.2846L5.82716 21.2541L5.76745 21.2704L0.211188 22.7869L1.6991 17.1323ZM11.0422 21.0276H11.0422H11.046C16.1528 21.0276 20.2984 16.7051 20.3006 11.4047C20.3014 8.83564 19.341 6.41814 17.5946 4.59902C15.8481 2.7797 13.5233 1.77576 11.0497 1.7749H11.0497C5.93931 1.7749 1.79332 6.09687 1.79141 11.3969C1.79058 13.2137 2.2791 14.9838 3.20489 16.5159L3.38861 16.8199L2.48499 20.2542L2.41887 20.5055L2.66955 20.437L6.05259 19.5137L6.32944 19.6848L6.32952 19.6848C7.75109 20.5622 9.38052 21.0269 11.0422 21.0276ZM16.405 15.4697C16.633 14.8044 16.633 14.2343 16.5645 14.1154C16.5096 14.02 16.3809 13.9553 16.1905 13.8595C16.144 13.8361 16.0938 13.8109 16.04 13.7829C15.7664 13.6402 14.4207 12.9515 14.1697 12.8564C13.9191 12.7613 13.7364 12.714 13.5541 12.999C13.3715 13.284 12.8471 13.9255 12.6873 14.1154C12.5276 14.3055 12.3681 14.3294 12.0944 14.1867C12.0497 14.1635 11.9889 14.136 11.9137 14.1021C11.5285 13.9283 10.7682 13.5851 9.89323 12.7733L16.405 15.4697Z" fill="white" stroke="#2D2D2D" stroke-width="0.3"/>
</svg>
