<svg width="15" height="15" viewBox="0 0 15 15" fill="none" xmlns="http://www.w3.org/2000/svg">
<path d="M7.71325 0.404193C9.11935 0.403946 10.494 0.820897 11.6632 1.60232C12.8325 2.38374 13.7438 3.49452 14.2821 4.79421C14.8204 6.0939 14.9613 7.52409 14.6872 8.90393C14.413 10.2838 13.736 11.5513 12.7418 12.5462C11.7477 13.5411 10.4809 14.2186 9.10186 14.4932C7.72279 14.7677 6.29332 14.6269 4.99423 14.0886C3.69513 13.5503 2.58477 12.6386 1.80356 11.4688C1.02235 10.2991 0.605378 8.92386 0.605384 7.51702C0.590415 6.57892 0.764047 5.64737 1.11594 4.77771C1.46782 3.90806 1.9908 3.11805 2.65382 2.45457C3.31683 1.79109 4.10635 1.26769 4.97548 0.915464C5.84462 0.563242 6.77564 0.389378 7.71325 0.404193ZM7.71325 1.56041C6.53156 1.54083 5.37079 1.87356 4.3787 2.51619C3.38662 3.15883 2.60812 4.08231 2.14233 5.16907C1.67653 6.25583 1.5445 7.4567 1.76306 8.61878C1.98163 9.78086 2.5409 10.8516 3.36965 11.6946C4.1984 12.5376 5.25913 13.1148 6.41682 13.3527C7.57451 13.5906 8.77678 13.4784 9.87053 13.0304C10.9643 12.5824 11.9 11.8189 12.5587 10.8371C13.2173 9.85522 13.569 8.69949 13.569 7.51702C13.5919 6.73682 13.4569 5.96004 13.172 5.23341C12.8871 4.50679 12.4582 3.84534 11.9112 3.28887C11.3641 2.7324 10.7102 2.2924 9.98878 1.99536C9.26735 1.69832 8.49331 1.55036 7.71325 1.56041Z" fill="#231F20"/>
</svg>
