<svg width="10" height="15" viewBox="0 0 10 15" fill="none" xmlns="http://www.w3.org/2000/svg">
<path d="M4.25021 0.561035C6.97246 0.561035 8.40261 2.22634 8.40261 4.02963C8.44672 4.64738 8.31111 5.26469 8.01219 5.807C7.71326 6.34931 7.2638 6.79343 6.71809 7.08572C7.4968 7.2883 8.18154 7.75408 8.65622 8.40409C9.13091 9.0541 9.36634 9.84835 9.32258 10.6522C9.32258 13.1991 7.26578 14.4732 4.17248 14.4732H0V0.561035H4.25021ZM7.18808 4.20518C7.18808 2.83329 6.18912 1.67835 4.42687 1.67835H1.21453V6.71327H4.42687C6.18912 6.71327 7.18808 5.63608 7.18808 4.20518ZM8.10805 10.5933C8.10805 8.98681 7.01134 7.79173 4.7202 7.79173H1.21453V13.3559H4.70011C6.99254 13.3559 8.10805 12.2197 8.10805 10.5933Z" fill="#231F20"/>
</svg>
