<svg width="10" height="15" viewBox="0 0 10 15" fill="none" xmlns="http://www.w3.org/2000/svg">
<path d="M4.5256 0.157715C7.24786 0.157715 8.678 1.82302 8.678 3.62631C8.72211 4.24406 8.5865 4.86137 8.28758 5.40368C7.98865 5.94599 7.53919 6.39011 6.99348 6.6824C7.77219 6.88498 8.45693 7.35076 8.93161 8.00077C9.4063 8.65078 9.64173 9.44503 9.59797 10.2489C9.59797 12.7958 7.54117 14.0698 4.44787 14.0698H0.275391V0.157715H4.5256ZM7.46347 3.80186C7.46347 2.42996 6.46451 1.27503 4.70226 1.27503H1.48992V6.30995H4.70226C6.46451 6.30995 7.46347 5.23276 7.46347 3.80186ZM8.38344 10.1899C8.38344 8.58349 7.28673 7.38841 4.99559 7.38841H1.48992V12.9525H4.9755C7.26793 12.9525 8.38344 11.8164 8.38344 10.1899Z" fill="white"/>
</svg>
