<svg width="16" height="15" viewBox="0 0 16 15" fill="none" xmlns="http://www.w3.org/2000/svg">
<path d="M7.98864 0.000873151C9.39474 0.000625515 10.7694 0.417576 11.9386 1.199C13.1079 1.98042 14.0192 3.0912 14.5575 4.39089C15.0958 5.69058 15.2367 7.12077 14.9626 8.50061C14.6884 9.88045 14.0114 11.148 13.0172 12.1429C12.023 13.1377 10.7563 13.8153 9.37725 14.0898C7.99818 14.3644 6.56871 14.2236 5.26962 13.6853C3.97052 13.1469 2.86017 12.2353 2.07895 11.0655C1.29774 9.89579 0.880768 8.52054 0.880774 7.1137C0.865806 6.1756 1.03944 5.24405 1.39133 4.37439C1.74321 3.50474 2.26619 2.71472 2.92921 2.05125C3.59222 1.38777 4.38174 0.864367 5.25087 0.512144C6.12001 0.159921 7.05103 -0.0139425 7.98864 0.000873151V0.000873151ZM7.98864 1.15709C6.80695 1.13751 5.64618 1.47024 4.65409 2.11287C3.66201 2.75551 2.88351 3.67899 2.41772 4.76575C1.95192 5.85251 1.81989 7.05338 2.03845 8.21546C2.25702 9.37754 2.81629 10.4482 3.64504 11.2913C4.47379 12.1343 5.53452 12.7115 6.69221 12.9494C7.8499 13.1873 9.05217 13.0751 10.1459 12.6271C11.2397 12.1791 12.1754 11.4156 12.8341 10.4337C13.4927 9.4519 13.8444 8.29617 13.8444 7.1137C13.8673 6.3335 13.7323 5.55672 13.4474 4.83009C13.1625 4.10347 12.7336 3.44202 12.1866 2.88555C11.6395 2.32908 10.9856 1.88908 10.2642 1.59204C9.54274 1.295 8.7687 1.14704 7.98864 1.15709V1.15709Z" fill="white"/>
</svg>
